<?xml version="1.0" standalone="no"?>
<!DOCTYPE svg PUBLIC "-//W3C//DTD SVG 20010904//EN"
 "http://www.w3.org/TR/2001/REC-SVG-20010904/DTD/svg10.dtd">
<svg version="1.0" xmlns="http://www.w3.org/2000/svg"
 width="300.000000pt" height="300.000000pt" viewBox="0 0 300.000000 300.000000"
 preserveAspectRatio="xMidYMid meet">
<metadata>
Created by potrace 1.10, written by Peter Selinger 2001-2011
</metadata>
<g transform="translate(0.000000,300.000000) scale(0.100000,-0.100000)"
fill="#000000" stroke="none">
<path d="M1204 2186 c-63 -28 -142 -154 -174 -282 -36 -139 -22 -235 49 -336
l40 -57 -35 -26 c-19 -15 -46 -38 -60 -53 -28 -30 -78 -121 -70 -129 2 -3 14
13 25 36 27 52 70 101 120 135 38 26 40 27 70 12 16 -9 41 -16 55 -16 27 0 59
26 53 43 -5 17 -53 26 -94 17 -48 -11 -71 9 -113 95 -55 112 -47 241 24 389
38 78 111 156 146 156 79 0 236 -188 286 -340 12 -37 18 -88 18 -156 l1 -102
-51 -53 c-55 -60 -128 -163 -145 -206 -5 -15 -8 -38 -4 -50 12 -49 86 -17 136
58 29 43 79 182 79 218 0 24 187 204 268 258 61 41 157 83 188 83 20 0 13 -50
-22 -162 -40 -126 -113 -219 -208 -264 -33 -16 -37 -16 -54 -1 -22 20 -36 21
-51 4 -15 -19 5 -37 41 -37 33 0 48 -23 49 -77 1 -36 1 -37 10 -11 7 19 6 36
-4 60 l-14 34 43 18 c55 23 134 107 174 185 32 64 70 195 70 244 0 23 -4 27
-30 27 -81 0 -211 -75 -354 -204 l-93 -85 -5 97 c-7 145 -66 275 -178 392 -79
82 -135 108 -186 86z m46 -676 c0 -6 -7 -13 -15 -16 -21 -8 -67 4 -60 16 8 13
75 13 75 0z m265 -52 c-26 -80 -61 -144 -91 -167 -15 -12 -30 -21 -34 -21 -19
0 -17 33 6 77 27 54 123 177 131 169 3 -2 -3 -29 -12 -58z"/>
<path d="M1552 1895 c24 -53 33 -86 36 -146 l5 -78 30 31 c17 16 48 42 69 55
21 14 38 27 38 29 0 12 -24 0 -64 -31 -26 -19 -48 -35 -50 -35 -2 0 -6 24 -9
54 -5 53 -48 156 -74 177 -7 7 1 -19 19 -56z"/>
<path d="M350 1145 l0 -95 55 0 c30 0 55 5 55 10 0 6 -20 10 -45 10 l-45 0 0
85 c0 50 -4 85 -10 85 -6 0 -10 -38 -10 -95z"/>
<path d="M980 1205 c0 -19 5 -35 10 -35 6 0 10 16 10 35 0 19 -4 35 -10 35 -5
0 -10 -16 -10 -35z"/>
<path d="M1900 1195 c0 -8 -7 -15 -15 -15 -8 0 -15 -4 -15 -10 0 -5 7 -10 14
-10 11 0 16 -15 18 -52 3 -46 6 -53 26 -56 12 -2 22 1 22 7 0 6 -7 11 -15 11
-11 0 -15 12 -15 46 0 37 3 45 15 40 9 -3 15 0 15 10 0 10 -6 14 -15 10 -10
-4 -15 1 -15 14 0 11 -4 20 -10 20 -5 0 -10 -7 -10 -15z"/>
<path d="M492 1169 c-13 -5 -20 -13 -17 -19 4 -7 12 -7 25 0 19 10 50 4 50
-10 0 -4 -16 -11 -36 -14 -68 -13 -56 -71 15 -71 l41 -1 0 53 c0 48 -3 54 -26
63 -14 6 -26 10 -27 9 -1 0 -12 -4 -25 -10z m56 -76 c-4 -23 -58 -31 -58 -9 0
15 14 24 43 25 12 1 17 -5 15 -16z"/>
<path d="M610 1126 c0 -63 12 -77 64 -74 l36 3 0 53 c0 28 0 55 1 59 0 4 -4 9
-10 11 -6 2 -11 -19 -13 -50 -3 -49 -5 -53 -28 -53 -23 0 -25 4 -28 53 -4 68
-22 67 -22 -2z"/>
<path d="M757 1173 c-4 -3 -7 -33 -7 -65 0 -46 3 -58 16 -58 12 0 14 7 9 30
-9 40 2 70 26 70 10 0 19 7 19 15 0 17 -9 19 -30 5 -9 -5 -17 -5 -20 1 -4 5
-9 6 -13 2z"/>
<path d="M863 1170 c-32 -13 -30 -32 1 -20 16 6 29 5 42 -4 16 -12 14 -14 -18
-20 -79 -15 -75 -70 4 -72 l45 -1 -5 51 c-2 30 -11 56 -20 64 -18 14 -19 14
-49 2z m45 -77 c-4 -21 -36 -29 -51 -14 -9 9 -8 14 3 21 25 16 52 12 48 -7z"/>
<path d="M1048 1169 c-30 -17 -22 -48 17 -65 47 -19 46 -38 -1 -31 -25 4 -34
2 -31 -6 6 -18 68 -15 80 5 13 20 -6 48 -34 48 -10 0 -21 5 -25 11 -9 15 13
28 37 22 23 -6 26 12 3 21 -21 8 -26 7 -46 -5z"/>
<path d="M1228 1169 c-30 -17 -22 -48 17 -65 45 -19 36 -38 -13 -29 -32 6 -34
5 -23 -9 18 -22 68 -21 80 2 12 23 -4 52 -29 52 -10 0 -22 5 -26 11 -9 15 17
30 32 18 8 -7 14 -7 18 0 4 6 -2 15 -13 20 -23 13 -22 13 -43 0z"/>
<path d="M1320 1080 c0 -60 4 -100 10 -100 6 0 10 18 10 39 l0 39 39 -5 c34
-5 41 -2 56 21 34 51 -13 118 -69 97 -17 -7 -26 -7 -26 -1 0 6 -4 10 -10 10
-6 0 -10 -40 -10 -100z m100 55 c31 -38 -33 -88 -68 -53 -13 13 -16 50 -5 61
12 13 60 7 73 -8z"/>
<path d="M1480 1117 c0 -38 4 -67 10 -67 6 0 10 20 10 45 0 40 3 47 27 56 19
7 23 13 15 21 -8 8 -15 8 -25 0 -10 -9 -16 -9 -25 0 -9 9 -12 -4 -12 -55z"/>
<path d="M1582 1169 c-13 -5 -20 -13 -17 -19 4 -7 12 -7 25 0 19 10 50 4 50
-9 0 -4 -17 -12 -37 -17 -33 -8 -38 -13 -38 -39 0 -29 2 -30 48 -31 l47 -2 0
49 c0 38 -4 51 -22 63 -25 18 -25 18 -56 5z m56 -76 c-4 -23 -58 -31 -58 -9 0
15 14 24 43 25 12 1 17 -5 15 -16z"/>
<path d="M1680 1177 c0 -2 12 -31 26 -63 20 -46 23 -62 15 -81 -6 -13 -17 -23
-26 -23 -8 0 -15 -4 -15 -10 0 -14 36 -12 48 3 13 16 73 170 67 175 -9 9 -22
-9 -35 -47 -7 -23 -16 -41 -20 -41 -3 0 -13 19 -21 42 -9 23 -21 44 -27 46 -7
2 -12 2 -12 -1z"/>
<path d="M1992 1169 c-13 -5 -20 -13 -17 -19 4 -7 12 -7 25 0 19 10 50 4 50
-9 0 -4 -17 -12 -37 -17 -33 -8 -38 -13 -38 -39 0 -29 2 -30 48 -31 l47 -2 0
49 c0 38 -4 51 -22 63 -25 18 -25 18 -56 5z m56 -76 c-4 -23 -58 -31 -58 -9 0
15 14 24 43 25 12 1 17 -5 15 -16z"/>
<path d="M2110 1180 c-8 -93 -7 -130 6 -130 10 0 14 13 14 45 0 32 5 47 18 53
30 16 42 3 42 -49 0 -27 5 -49 10 -49 6 0 10 25 10 55 0 44 -4 56 -20 65 -14
8 -26 8 -41 -1 -17 -9 -23 -8 -30 2 -5 8 -9 12 -9 9z"/>
<path d="M2250 1117 c0 -38 4 -67 10 -67 6 0 10 20 10 45 0 32 5 47 18 53 31
16 42 3 42 -50 0 -31 4 -48 11 -46 6 2 10 7 10 11 -1 4 -1 27 -1 52 0 50 -25
74 -58 56 -13 -7 -23 -6 -30 1 -9 9 -12 -4 -12 -55z"/>
<path d="M2397 1173 c-4 -3 -7 -33 -7 -65 0 -41 4 -58 13 -58 9 0 13 17 11 60
-1 61 -5 75 -17 63z"/>
<path d="M2450 1115 c0 -37 4 -65 10 -65 6 0 10 20 10 45 0 49 21 71 52 54 13
-7 18 -22 18 -54 0 -25 5 -45 10 -45 13 0 13 76 0 99 -13 25 -37 33 -61 21
-13 -7 -19 -7 -19 0 0 5 -4 10 -10 10 -6 0 -10 -28 -10 -65z"/>
<path d="M2622 1168 c-45 -22 -37 -101 12 -114 13 -3 34 -1 45 6 17 8 21 8 21
-4 0 -36 -40 -52 -85 -35 -5 2 -12 0 -15 -6 -7 -14 43 -29 74 -21 16 4 31 17
36 32 13 33 13 141 0 149 -5 3 -10 1 -10 -5 0 -7 -7 -9 -15 -6 -34 14 -41 14
-63 4z m73 -38 c10 -16 -5 -49 -25 -55 -29 -9 -60 12 -60 41 0 41 62 51 85 14z"/>
<path d="M1068 819 c-30 -17 -22 -48 17 -65 45 -19 36 -38 -13 -29 -32 6 -34
5 -23 -9 30 -36 108 -6 84 32 -5 9 -21 19 -34 22 -34 8 -32 36 4 32 15 -1 27
2 27 8 0 5 -4 10 -9 10 -5 0 -15 2 -23 5 -7 2 -21 0 -30 -6z"/>
<path d="M1166 823 c-3 -3 -6 -33 -6 -65 0 -79 21 -73 23 6 2 56 -3 73 -17 59z"/>
<path d="M1250 817 c-19 -9 -26 -22 -28 -48 -5 -56 37 -84 92 -63 29 11 16 21
-26 20 -30 -1 -43 3 -45 14 -3 12 5 14 42 12 43 -4 45 -3 45 21 0 15 -9 32
-22 41 -27 19 -26 19 -58 3z m44 -13 c30 -12 18 -34 -19 -34 -38 0 -46 13 -17
29 21 13 17 12 36 5z"/>
<path d="M1360 765 c0 -37 4 -65 10 -65 6 0 10 18 10 39 0 36 19 71 39 71 18
0 31 -28 31 -67 0 -24 5 -43 10 -43 6 0 10 22 10 49 0 59 -25 86 -66 71 -15
-6 -24 -6 -24 0 0 6 -4 10 -10 10 -6 0 -10 -28 -10 -65z"/>
<path d="M1510 830 c-7 -76 -5 -130 7 -130 9 0 12 13 11 40 -2 46 19 74 45 64
13 -5 17 -18 17 -55 0 -27 5 -49 10 -49 6 0 10 25 10 55 0 49 -3 57 -22 64
-14 5 -31 5 -42 -1 -13 -7 -21 -6 -27 3 -5 8 -9 12 -9 9z"/>
<path d="M1673 820 c-32 -13 -28 -23 5 -15 19 4 33 1 41 -8 9 -12 6 -16 -23
-21 -78 -15 -72 -70 8 -72 l46 -1 -6 51 c-3 28 -13 57 -22 64 -18 14 -19 14
-49 2z m57 -64 c0 -19 -16 -36 -34 -36 -29 0 -39 10 -25 27 10 12 59 19 59 9z"/>
<path d="M1854 808 c28 -40 29 -48 6 -73 -13 -14 -20 -28 -16 -32 4 -5 18 5
30 20 l23 29 21 -26 c11 -14 25 -26 32 -26 7 0 0 16 -15 36 l-27 35 23 25 c12
13 19 27 15 31 -4 5 -18 -4 -29 -19 l-22 -26 -18 24 c-10 13 -23 24 -29 24 -6
0 -3 -10 6 -22z"/>
<path d="M1883 555 c0 -33 2 -45 4 -27 2 18 2 45 0 60 -2 15 -4 0 -4 -33z"/>
<path d="M2051 559 c-1 -54 0 -56 25 -55 51 2 60 66 10 66 -18 0 -26 6 -29 23
-2 12 -5 -3 -6 -34z m54 -19 c0 -8 -10 -16 -22 -18 -22 -3 -32 16 -16 32 12
11 38 2 38 -14z"/>
<path d="M2622 555 c0 -35 2 -52 7 -42 6 17 8 17 20 3 7 -9 18 -16 24 -16 5 0
2 9 -8 20 -15 16 -15 22 -5 35 8 9 8 15 2 15 -6 0 -14 -6 -19 -12 -5 -9 -10
-1 -14 22 -5 28 -6 23 -7 -25z"/>
<path d="M1160 580 c0 -5 -6 -10 -13 -10 -8 0 -18 -10 -24 -22 l-10 -23 -7 23
c-4 12 -12 22 -17 22 -5 0 -3 -16 6 -35 13 -32 13 -37 0 -42 -19 -7 -19 -23
-1 -23 8 0 22 20 32 45 19 51 31 57 36 18 2 -14 10 -28 18 -31 12 -4 13 -2 3
9 -15 15 -17 46 -4 51 5 2 3 9 -5 16 -8 7 -14 8 -14 2z"/>
<path d="M495 545 c9 -41 22 -52 30 -24 l7 22 13 -24 13 -23 14 34 14 35 13
-35 c12 -35 12 -35 25 -12 l12 23 11 -23 c10 -23 11 -22 25 12 l14 35 13 -35
c12 -35 12 -35 25 -12 l12 23 11 -23 11 -23 11 29 c14 36 7 61 -7 26 -7 -17
-11 -19 -11 -8 -1 27 -20 31 -30 6 l-8 -23 -7 23 c-9 28 -30 28 -44 0 -8 -18
-11 -19 -11 -6 -1 27 -20 31 -30 6 l-8 -23 -7 23 c-9 28 -33 28 -42 0 l-7 -23
-8 23 c-10 25 -29 21 -29 -6 -1 -13 -5 -11 -16 8 l-15 25 6 -30z"/>
<path d="M820 554 c0 -9 10 -19 23 -22 22 -6 22 -6 -3 -13 -22 -5 -23 -7 -7
-14 11 -5 23 -3 30 4 9 9 6 17 -13 32 -16 14 -19 19 -7 15 9 -3 17 -1 17 4 0
6 -9 10 -20 10 -12 0 -20 -7 -20 -16z"/>
<path d="M881 513 c1 -38 4 -49 8 -33 4 16 13 25 25 25 23 0 41 27 33 49 -4
10 -18 16 -37 16 l-30 0 1 -57z m54 27 c0 -8 -10 -16 -22 -18 -22 -3 -32 16
-16 32 12 11 38 2 38 -14z"/>
<path d="M971 533 c1 -27 3 -31 6 -13 2 14 12 31 21 38 14 11 13 12 -6 12 -19
0 -22 -5 -21 -37z"/>
<path d="M1033 564 c23 -7 22 -20 -4 -27 -29 -8 -18 -32 15 -33 24 -1 27 2 24
30 -2 25 -8 31 -28 33 -14 1 -18 0 -7 -3z"/>
<path d="M1225 560 c19 -9 19 -9 -3 -16 -29 -8 -25 -39 6 -40 19 -1 22 4 22
32 0 29 -3 34 -22 33 -22 0 -22 -1 -3 -9z"/>
<path d="M1270 535 c0 -22 4 -34 10 -30 6 3 10 18 10 31 0 35 23 26 32 -12 6
-27 6 -27 5 6 -2 30 -6 35 -29 38 -26 3 -28 1 -28 -33z"/>
<path d="M1351 533 c1 -36 2 -37 8 -8 7 35 36 41 36 8 0 -12 4 -26 9 -30 4 -4
6 8 4 27 -3 30 -7 35 -30 38 -26 3 -28 1 -27 -35z"/>
<path d="M1460 535 c0 -20 4 -34 10 -30 5 3 7 11 5 18 -3 7 -1 19 5 27 11 18
26 5 33 -30 3 -17 5 -13 4 10 -2 30 -6 35 -29 38 -26 3 -28 1 -28 -33z"/>
<path d="M1540 551 c-12 -23 13 -56 36 -47 8 3 14 1 14 -4 0 -5 -12 -10 -27
-12 -25 -4 -26 -5 -9 -13 30 -13 51 7 54 54 3 40 2 41 -27 41 -20 0 -34 -7
-41 -19z m49 -4 c13 -16 5 -27 -21 -27 -18 0 -25 20 -11 33 10 10 19 8 32 -6z"/>
<path d="M1661 533 c1 -36 2 -37 8 -8 3 17 13 30 21 30 8 0 18 -13 22 -30 6
-29 6 -29 5 5 -2 30 -6 35 -29 38 -26 3 -28 1 -27 -35z"/>
<path d="M1760 560 l25 -8 -23 -7 c-29 -10 -25 -40 6 -41 19 -1 22 4 22 32 0
31 -3 34 -27 33 l-28 -1 25 -8z"/>
<path d="M1815 554 c15 -36 17 -64 6 -64 -6 0 -11 -4 -11 -10 0 -5 5 -10 10
-10 12 0 53 90 45 98 -3 4 -8 -4 -12 -16 -6 -25 -23 -30 -23 -8 0 8 -5 18 -12
22 -8 5 -9 2 -3 -12z"/>
<path d="M1917 564 c-4 -4 -7 -18 -7 -30 0 -25 31 -41 52 -27 9 5 3 10 -17 14
l-30 7 28 1 c21 1 28 5 25 19 -3 17 -38 29 -51 16z"/>
<path d="M1990 554 c0 -9 10 -19 23 -22 22 -6 22 -6 -3 -13 -22 -5 -23 -7 -7
-14 11 -5 23 -3 30 4 9 9 6 17 -13 32 -16 14 -19 19 -7 15 9 -3 17 -1 17 4 0
6 -9 10 -20 10 -12 0 -20 -7 -20 -16z"/>
<path d="M2130 546 c0 -53 63 -60 68 -8 2 18 -1 32 -7 32 -6 0 -11 -11 -11
-25 0 -16 -6 -25 -15 -25 -9 0 -15 9 -15 25 0 14 -4 25 -10 25 -5 0 -10 -11
-10 -24z"/>
<path d="M2221 533 c1 -36 2 -36 8 -9 8 40 26 43 41 6 11 -27 11 -32 -6 -45
-18 -13 -18 -14 -1 -15 12 0 24 15 37 46 23 52 23 54 11 54 -5 0 -12 -10 -15
-22 l-7 -23 -9 23 c-6 14 -18 22 -35 22 -22 0 -25 -4 -24 -37z"/>
<path d="M2357 563 c-24 -23 10 -71 40 -58 16 7 15 8 -5 14 -13 3 -23 9 -23
14 1 4 1 12 1 18 0 6 9 8 20 4 11 -4 20 -2 20 4 0 12 -43 15 -53 4z"/>
<path d="M2420 551 c-7 -15 -6 -24 6 -36 31 -31 82 6 55 39 -18 22 -48 20 -61
-3z m48 -14 c2 -12 -3 -17 -17 -17 -12 0 -21 6 -21 13 0 31 32 34 38 4z"/>
<path d="M2543 540 c2 -31 5 -35 30 -36 25 -1 27 2 26 35 -1 31 -2 33 -8 11
-4 -14 -13 -25 -21 -25 -8 0 -17 11 -21 25 -7 21 -8 19 -6 -10z"/>
<path d="M2809 331 c-19 -4 -47 -16 -61 -27 -29 -21 -68 -77 -68 -96 0 -7 7 0
16 17 35 67 82 95 159 95 52 0 77 -10 118 -48 18 -17 27 -21 27 -11 0 18 -56
54 -106 68 -21 6 -41 10 -44 10 -3 -1 -21 -4 -41 -8z"/>
<path d="M2742 173 l3 -58 40 -1 c24 -1 29 0 13 3 -27 4 -28 7 -28 59 0 42 -3
54 -15 54 -13 0 -15 -11 -13 -57z"/>
<path d="M2832 176 c-2 -30 2 -57 7 -61 7 -4 11 6 11 27 l1 33 28 -35 c16 -19
33 -32 37 -28 4 4 2 14 -4 21 -9 10 -8 18 3 33 8 10 14 24 14 29 1 6 -8 -1
-18 -14 l-18 -23 -22 36 c-13 20 -26 36 -29 36 -4 0 -8 -24 -10 -54z"/>
<path d="M2937 223 c-7 -14 5 -103 14 -103 5 0 9 25 9 55 0 48 -11 71 -23 48z"/>
<path d="M2680 97 c-1 -27 63 -107 76 -94 3 3 -4 10 -15 16 -11 7 -30 28 -40
49 -11 20 -20 33 -21 29z"/>
<path d="M2762 78 c6 -16 39 -19 57 -5 12 10 13 9 6 -2 -5 -10 -4 -12 3 -7 24
15 11 26 -29 26 -26 0 -39 -4 -37 -12z"/>
<path d="M2850 79 c0 -5 13 -9 29 -9 16 0 37 -3 47 -7 13 -5 15 -3 9 8 -8 12
-6 12 8 0 15 -12 17 -11 17 2 0 13 -11 16 -55 16 -30 -1 -55 -5 -55 -10z"/>
</g>
</svg>
